<mxfile host="app.diagrams.net" agent="Mozilla/5.0 (Windows NT 10.0; Win64; x64) AppleWebKit/537.36 (KHTML, like Gecko) Chrome/133.0.0.0 Safari/537.36 Edg/133.0.0.0" version="26.0.14">
  <diagram name="Page-1" id="ZwpUyBoXqPY9J8fAjMQp">
    <mxGraphModel dx="1383" dy="960" grid="1" gridSize="10" guides="1" tooltips="1" connect="1" arrows="1" fold="1" page="1" pageScale="1" pageWidth="850" pageHeight="1100" math="0" shadow="0">
      <root>
        <mxCell id="0" />
        <mxCell id="1" parent="0" />
        <mxCell id="YKM3p-_N13BnKFxUyMiM-31" value="fa0" style="whiteSpace=wrap;html=1;aspect=fixed;" vertex="1" parent="1">
          <mxGeometry x="820" y="290" width="80" height="80" as="geometry" />
        </mxCell>
        <mxCell id="YKM3p-_N13BnKFxUyMiM-37" value="sel" style="endArrow=classic;html=1;rounded=0;entryX=1;entryY=0.5;entryDx=0;entryDy=0;" edge="1" parent="1" target="YKM3p-_N13BnKFxUyMiM-31">
          <mxGeometry width="50" height="50" relative="1" as="geometry">
            <mxPoint x="970" y="330" as="sourcePoint" />
            <mxPoint x="580" y="300" as="targetPoint" />
          </mxGeometry>
        </mxCell>
        <mxCell id="YKM3p-_N13BnKFxUyMiM-39" value="x_0" style="endArrow=classic;html=1;rounded=0;entryX=0.25;entryY=0;entryDx=0;entryDy=0;" edge="1" parent="1" target="YKM3p-_N13BnKFxUyMiM-31">
          <mxGeometry width="50" height="50" relative="1" as="geometry">
            <mxPoint x="840" y="250" as="sourcePoint" />
            <mxPoint x="890" y="300" as="targetPoint" />
          </mxGeometry>
        </mxCell>
        <mxCell id="YKM3p-_N13BnKFxUyMiM-55" value="c1" style="endArrow=classic;html=1;rounded=0;exitX=0;exitY=0.5;exitDx=0;exitDy=0;" edge="1" parent="1" source="YKM3p-_N13BnKFxUyMiM-31">
          <mxGeometry width="50" height="50" relative="1" as="geometry">
            <mxPoint x="950" y="340" as="sourcePoint" />
            <mxPoint x="780" y="330" as="targetPoint" />
          </mxGeometry>
        </mxCell>
        <mxCell id="YKM3p-_N13BnKFxUyMiM-56" value="sum_0" style="endArrow=classic;html=1;rounded=0;exitX=0.5;exitY=1;exitDx=0;exitDy=0;" edge="1" parent="1" source="YKM3p-_N13BnKFxUyMiM-31">
          <mxGeometry width="50" height="50" relative="1" as="geometry">
            <mxPoint x="960" y="350" as="sourcePoint" />
            <mxPoint x="860" y="410" as="targetPoint" />
          </mxGeometry>
        </mxCell>
        <mxCell id="YKM3p-_N13BnKFxUyMiM-59" value="fa1" style="whiteSpace=wrap;html=1;aspect=fixed;" vertex="1" parent="1">
          <mxGeometry x="700" y="290" width="80" height="80" as="geometry" />
        </mxCell>
        <mxCell id="YKM3p-_N13BnKFxUyMiM-61" value="x_1" style="endArrow=classic;html=1;rounded=0;entryX=0.25;entryY=0;entryDx=0;entryDy=0;" edge="1" parent="1" target="YKM3p-_N13BnKFxUyMiM-59">
          <mxGeometry width="50" height="50" relative="1" as="geometry">
            <mxPoint x="720" y="250" as="sourcePoint" />
            <mxPoint x="770" y="300" as="targetPoint" />
          </mxGeometry>
        </mxCell>
        <mxCell id="YKM3p-_N13BnKFxUyMiM-62" value="c2" style="endArrow=classic;html=1;rounded=0;exitX=0;exitY=0.5;exitDx=0;exitDy=0;" edge="1" parent="1" source="YKM3p-_N13BnKFxUyMiM-59">
          <mxGeometry width="50" height="50" relative="1" as="geometry">
            <mxPoint x="830" y="340" as="sourcePoint" />
            <mxPoint x="660" y="330" as="targetPoint" />
          </mxGeometry>
        </mxCell>
        <mxCell id="YKM3p-_N13BnKFxUyMiM-63" value="sum_1" style="endArrow=classic;html=1;rounded=0;exitX=0.5;exitY=1;exitDx=0;exitDy=0;" edge="1" parent="1" source="YKM3p-_N13BnKFxUyMiM-59">
          <mxGeometry width="50" height="50" relative="1" as="geometry">
            <mxPoint x="840" y="350" as="sourcePoint" />
            <mxPoint x="740" y="410" as="targetPoint" />
          </mxGeometry>
        </mxCell>
        <mxCell id="YKM3p-_N13BnKFxUyMiM-64" value="fa2" style="whiteSpace=wrap;html=1;aspect=fixed;" vertex="1" parent="1">
          <mxGeometry x="580" y="290" width="80" height="80" as="geometry" />
        </mxCell>
        <mxCell id="YKM3p-_N13BnKFxUyMiM-66" value="x_2" style="endArrow=classic;html=1;rounded=0;entryX=0.25;entryY=0;entryDx=0;entryDy=0;" edge="1" parent="1" target="YKM3p-_N13BnKFxUyMiM-64">
          <mxGeometry width="50" height="50" relative="1" as="geometry">
            <mxPoint x="600" y="250" as="sourcePoint" />
            <mxPoint x="650" y="300" as="targetPoint" />
          </mxGeometry>
        </mxCell>
        <mxCell id="YKM3p-_N13BnKFxUyMiM-67" value="c3" style="endArrow=classic;html=1;rounded=0;exitX=0;exitY=0.5;exitDx=0;exitDy=0;" edge="1" parent="1" source="YKM3p-_N13BnKFxUyMiM-64">
          <mxGeometry width="50" height="50" relative="1" as="geometry">
            <mxPoint x="710" y="340" as="sourcePoint" />
            <mxPoint x="540" y="330" as="targetPoint" />
          </mxGeometry>
        </mxCell>
        <mxCell id="YKM3p-_N13BnKFxUyMiM-68" value="sum_2" style="endArrow=classic;html=1;rounded=0;exitX=0.5;exitY=1;exitDx=0;exitDy=0;" edge="1" parent="1" source="YKM3p-_N13BnKFxUyMiM-64">
          <mxGeometry width="50" height="50" relative="1" as="geometry">
            <mxPoint x="720" y="350" as="sourcePoint" />
            <mxPoint x="620" y="410" as="targetPoint" />
          </mxGeometry>
        </mxCell>
        <mxCell id="YKM3p-_N13BnKFxUyMiM-69" value="fa3" style="whiteSpace=wrap;html=1;aspect=fixed;" vertex="1" parent="1">
          <mxGeometry x="460" y="290" width="80" height="80" as="geometry" />
        </mxCell>
        <mxCell id="YKM3p-_N13BnKFxUyMiM-71" value="x_3" style="endArrow=classic;html=1;rounded=0;entryX=0.25;entryY=0;entryDx=0;entryDy=0;" edge="1" parent="1" target="YKM3p-_N13BnKFxUyMiM-69">
          <mxGeometry width="50" height="50" relative="1" as="geometry">
            <mxPoint x="480" y="250" as="sourcePoint" />
            <mxPoint x="530" y="300" as="targetPoint" />
          </mxGeometry>
        </mxCell>
        <mxCell id="YKM3p-_N13BnKFxUyMiM-72" value="c4" style="endArrow=classic;html=1;rounded=0;exitX=0;exitY=0.5;exitDx=0;exitDy=0;" edge="1" parent="1" source="YKM3p-_N13BnKFxUyMiM-69">
          <mxGeometry width="50" height="50" relative="1" as="geometry">
            <mxPoint x="590" y="340" as="sourcePoint" />
            <mxPoint x="420" y="330" as="targetPoint" />
          </mxGeometry>
        </mxCell>
        <mxCell id="YKM3p-_N13BnKFxUyMiM-73" value="sum_3" style="endArrow=classic;html=1;rounded=0;exitX=0.5;exitY=1;exitDx=0;exitDy=0;" edge="1" parent="1" source="YKM3p-_N13BnKFxUyMiM-69">
          <mxGeometry width="50" height="50" relative="1" as="geometry">
            <mxPoint x="600" y="350" as="sourcePoint" />
            <mxPoint x="500" y="410" as="targetPoint" />
          </mxGeometry>
        </mxCell>
        <mxCell id="YKM3p-_N13BnKFxUyMiM-79" value="fa4" style="whiteSpace=wrap;html=1;aspect=fixed;" vertex="1" parent="1">
          <mxGeometry x="340" y="290" width="80" height="80" as="geometry" />
        </mxCell>
        <mxCell id="YKM3p-_N13BnKFxUyMiM-81" value="x_4" style="endArrow=classic;html=1;rounded=0;entryX=0.25;entryY=0;entryDx=0;entryDy=0;" edge="1" parent="1" target="YKM3p-_N13BnKFxUyMiM-79">
          <mxGeometry width="50" height="50" relative="1" as="geometry">
            <mxPoint x="360" y="250" as="sourcePoint" />
            <mxPoint x="410" y="300" as="targetPoint" />
          </mxGeometry>
        </mxCell>
        <mxCell id="YKM3p-_N13BnKFxUyMiM-82" value="c5" style="endArrow=classic;html=1;rounded=0;exitX=0;exitY=0.5;exitDx=0;exitDy=0;" edge="1" parent="1" source="YKM3p-_N13BnKFxUyMiM-79">
          <mxGeometry y="-10" width="50" height="50" relative="1" as="geometry">
            <mxPoint x="470" y="340" as="sourcePoint" />
            <mxPoint x="300" y="330" as="targetPoint" />
            <mxPoint as="offset" />
          </mxGeometry>
        </mxCell>
        <mxCell id="YKM3p-_N13BnKFxUyMiM-83" value="sum_4" style="endArrow=classic;html=1;rounded=0;exitX=0.5;exitY=1;exitDx=0;exitDy=0;" edge="1" parent="1" source="YKM3p-_N13BnKFxUyMiM-79">
          <mxGeometry width="50" height="50" relative="1" as="geometry">
            <mxPoint x="480" y="350" as="sourcePoint" />
            <mxPoint x="380" y="410" as="targetPoint" />
          </mxGeometry>
        </mxCell>
        <mxCell id="YKM3p-_N13BnKFxUyMiM-84" value="fa5" style="whiteSpace=wrap;html=1;aspect=fixed;" vertex="1" parent="1">
          <mxGeometry x="220" y="290" width="80" height="80" as="geometry" />
        </mxCell>
        <mxCell id="YKM3p-_N13BnKFxUyMiM-85" value="y_5" style="endArrow=classic;html=1;rounded=0;entryX=0;entryY=0.75;entryDx=0;entryDy=0;entryPerimeter=0;" edge="1" parent="1" target="YKM3p-_N13BnKFxUyMiM-98">
          <mxGeometry width="50" height="50" relative="1" as="geometry">
            <mxPoint x="274" y="170" as="sourcePoint" />
            <mxPoint x="280" y="240" as="targetPoint" />
          </mxGeometry>
        </mxCell>
        <mxCell id="YKM3p-_N13BnKFxUyMiM-86" value="x_5" style="endArrow=classic;html=1;rounded=0;entryX=0.25;entryY=0;entryDx=0;entryDy=0;" edge="1" parent="1" target="YKM3p-_N13BnKFxUyMiM-84">
          <mxGeometry width="50" height="50" relative="1" as="geometry">
            <mxPoint x="240" y="250" as="sourcePoint" />
            <mxPoint x="290" y="300" as="targetPoint" />
          </mxGeometry>
        </mxCell>
        <mxCell id="YKM3p-_N13BnKFxUyMiM-88" value="sum_5" style="endArrow=classic;html=1;rounded=0;exitX=0.5;exitY=1;exitDx=0;exitDy=0;" edge="1" parent="1" source="YKM3p-_N13BnKFxUyMiM-84">
          <mxGeometry width="50" height="50" relative="1" as="geometry">
            <mxPoint x="360" y="350" as="sourcePoint" />
            <mxPoint x="260" y="410" as="targetPoint" />
          </mxGeometry>
        </mxCell>
        <mxCell id="YKM3p-_N13BnKFxUyMiM-89" value="c5" style="endArrow=classic;html=1;rounded=0;edgeStyle=elbowEdgeStyle;entryX=0;entryY=0.25;entryDx=0;entryDy=0;entryPerimeter=0;" edge="1" parent="1" target="YKM3p-_N13BnKFxUyMiM-95">
          <mxGeometry width="50" height="50" relative="1" as="geometry">
            <mxPoint x="309.43" y="330" as="sourcePoint" />
            <mxPoint x="180" y="470" as="targetPoint" />
            <Array as="points">
              <mxPoint x="320" y="470" />
            </Array>
          </mxGeometry>
        </mxCell>
        <mxCell id="YKM3p-_N13BnKFxUyMiM-90" value="c6" style="endArrow=classic;html=1;rounded=0;exitX=0;exitY=0.5;exitDx=0;exitDy=0;" edge="1" parent="1" source="YKM3p-_N13BnKFxUyMiM-84" target="YKM3p-_N13BnKFxUyMiM-91">
          <mxGeometry y="-10" width="50" height="50" relative="1" as="geometry">
            <mxPoint x="350" y="340" as="sourcePoint" />
            <mxPoint x="180" y="330" as="targetPoint" />
            <mxPoint as="offset" />
          </mxGeometry>
        </mxCell>
        <mxCell id="YKM3p-_N13BnKFxUyMiM-94" value="" style="edgeStyle=orthogonalEdgeStyle;rounded=0;orthogonalLoop=1;jettySize=auto;html=1;" edge="1" parent="1" source="YKM3p-_N13BnKFxUyMiM-91" target="YKM3p-_N13BnKFxUyMiM-84">
          <mxGeometry relative="1" as="geometry" />
        </mxCell>
        <mxCell id="YKM3p-_N13BnKFxUyMiM-91" value="c_out" style="text;html=1;align=center;verticalAlign=middle;whiteSpace=wrap;rounded=0;" vertex="1" parent="1">
          <mxGeometry x="100" y="315" width="60" height="30" as="geometry" />
        </mxCell>
        <mxCell id="YKM3p-_N13BnKFxUyMiM-92" value="c6" style="endArrow=classic;html=1;rounded=0;exitX=0;exitY=0.5;exitDx=0;exitDy=0;edgeStyle=elbowEdgeStyle;entryX=0;entryY=0.75;entryDx=0;entryDy=0;entryPerimeter=0;" edge="1" parent="1" source="YKM3p-_N13BnKFxUyMiM-84" target="YKM3p-_N13BnKFxUyMiM-95">
          <mxGeometry width="50" height="50" relative="1" as="geometry">
            <mxPoint x="230" y="340" as="sourcePoint" />
            <mxPoint x="180" y="440" as="targetPoint" />
          </mxGeometry>
        </mxCell>
        <mxCell id="YKM3p-_N13BnKFxUyMiM-95" value="" style="verticalLabelPosition=bottom;shadow=0;dashed=0;align=center;html=1;verticalAlign=top;shape=mxgraph.electrical.logic_gates.logic_gate;operation=xor;rotation=-180;" vertex="1" parent="1">
          <mxGeometry x="120" y="440" width="70" height="40" as="geometry" />
        </mxCell>
        <mxCell id="YKM3p-_N13BnKFxUyMiM-97" value="overflow" style="text;html=1;align=center;verticalAlign=middle;whiteSpace=wrap;rounded=0;" vertex="1" parent="1">
          <mxGeometry x="70" y="445" width="60" height="30" as="geometry" />
        </mxCell>
        <mxCell id="YKM3p-_N13BnKFxUyMiM-98" value="" style="verticalLabelPosition=bottom;shadow=0;dashed=0;align=center;html=1;verticalAlign=top;shape=mxgraph.electrical.logic_gates.logic_gate;operation=xor;rotation=90;" vertex="1" parent="1">
          <mxGeometry x="258.75" y="220" width="41.25" height="20" as="geometry" />
        </mxCell>
        <mxCell id="YKM3p-_N13BnKFxUyMiM-99" value="y2C_5" style="endArrow=classic;html=1;rounded=0;entryX=0.75;entryY=0;entryDx=0;entryDy=0;exitX=1;exitY=0.5;exitDx=0;exitDy=0;exitPerimeter=0;" edge="1" parent="1" source="YKM3p-_N13BnKFxUyMiM-98" target="YKM3p-_N13BnKFxUyMiM-84">
          <mxGeometry width="50" height="50" relative="1" as="geometry">
            <mxPoint x="290" y="170" as="sourcePoint" />
            <mxPoint x="276" y="219" as="targetPoint" />
          </mxGeometry>
        </mxCell>
        <mxCell id="YKM3p-_N13BnKFxUyMiM-105" value="y_5" style="endArrow=classic;html=1;rounded=0;entryX=0;entryY=0.75;entryDx=0;entryDy=0;entryPerimeter=0;" edge="1" parent="1" target="YKM3p-_N13BnKFxUyMiM-106">
          <mxGeometry width="50" height="50" relative="1" as="geometry">
            <mxPoint x="514" y="170" as="sourcePoint" />
            <mxPoint x="520" y="240" as="targetPoint" />
          </mxGeometry>
        </mxCell>
        <mxCell id="YKM3p-_N13BnKFxUyMiM-106" value="" style="verticalLabelPosition=bottom;shadow=0;dashed=0;align=center;html=1;verticalAlign=top;shape=mxgraph.electrical.logic_gates.logic_gate;operation=xor;rotation=90;" vertex="1" parent="1">
          <mxGeometry x="498.75" y="220" width="41.25" height="20" as="geometry" />
        </mxCell>
        <mxCell id="YKM3p-_N13BnKFxUyMiM-107" value="y2C_5" style="endArrow=classic;html=1;rounded=0;entryX=0.75;entryY=0;entryDx=0;entryDy=0;exitX=1;exitY=0.5;exitDx=0;exitDy=0;exitPerimeter=0;" edge="1" parent="1" source="YKM3p-_N13BnKFxUyMiM-106">
          <mxGeometry width="50" height="50" relative="1" as="geometry">
            <mxPoint x="530" y="170" as="sourcePoint" />
            <mxPoint x="520" y="290" as="targetPoint" />
          </mxGeometry>
        </mxCell>
        <mxCell id="YKM3p-_N13BnKFxUyMiM-108" value="y_5" style="endArrow=classic;html=1;rounded=0;entryX=0;entryY=0.75;entryDx=0;entryDy=0;entryPerimeter=0;" edge="1" parent="1" target="YKM3p-_N13BnKFxUyMiM-109">
          <mxGeometry width="50" height="50" relative="1" as="geometry">
            <mxPoint x="634" y="170" as="sourcePoint" />
            <mxPoint x="640" y="240" as="targetPoint" />
          </mxGeometry>
        </mxCell>
        <mxCell id="YKM3p-_N13BnKFxUyMiM-109" value="" style="verticalLabelPosition=bottom;shadow=0;dashed=0;align=center;html=1;verticalAlign=top;shape=mxgraph.electrical.logic_gates.logic_gate;operation=xor;rotation=90;" vertex="1" parent="1">
          <mxGeometry x="618.75" y="220" width="41.25" height="20" as="geometry" />
        </mxCell>
        <mxCell id="YKM3p-_N13BnKFxUyMiM-110" value="y2C_5" style="endArrow=classic;html=1;rounded=0;entryX=0.75;entryY=0;entryDx=0;entryDy=0;exitX=1;exitY=0.5;exitDx=0;exitDy=0;exitPerimeter=0;" edge="1" parent="1" source="YKM3p-_N13BnKFxUyMiM-109">
          <mxGeometry width="50" height="50" relative="1" as="geometry">
            <mxPoint x="650" y="170" as="sourcePoint" />
            <mxPoint x="640" y="290" as="targetPoint" />
          </mxGeometry>
        </mxCell>
        <mxCell id="YKM3p-_N13BnKFxUyMiM-116" value="y_5" style="endArrow=classic;html=1;rounded=0;entryX=0;entryY=0.75;entryDx=0;entryDy=0;entryPerimeter=0;" edge="1" parent="1" target="YKM3p-_N13BnKFxUyMiM-117">
          <mxGeometry width="50" height="50" relative="1" as="geometry">
            <mxPoint x="394" y="170" as="sourcePoint" />
            <mxPoint x="400" y="240" as="targetPoint" />
          </mxGeometry>
        </mxCell>
        <mxCell id="YKM3p-_N13BnKFxUyMiM-117" value="" style="verticalLabelPosition=bottom;shadow=0;dashed=0;align=center;html=1;verticalAlign=top;shape=mxgraph.electrical.logic_gates.logic_gate;operation=xor;rotation=90;" vertex="1" parent="1">
          <mxGeometry x="378.75" y="220" width="41.25" height="20" as="geometry" />
        </mxCell>
        <mxCell id="YKM3p-_N13BnKFxUyMiM-118" value="y2C_5" style="endArrow=classic;html=1;rounded=0;entryX=0.75;entryY=0;entryDx=0;entryDy=0;exitX=1;exitY=0.5;exitDx=0;exitDy=0;exitPerimeter=0;" edge="1" parent="1" source="YKM3p-_N13BnKFxUyMiM-117">
          <mxGeometry width="50" height="50" relative="1" as="geometry">
            <mxPoint x="410" y="170" as="sourcePoint" />
            <mxPoint x="400" y="290" as="targetPoint" />
          </mxGeometry>
        </mxCell>
        <mxCell id="YKM3p-_N13BnKFxUyMiM-119" value="y_5" style="endArrow=classic;html=1;rounded=0;entryX=0;entryY=0.75;entryDx=0;entryDy=0;entryPerimeter=0;" edge="1" parent="1" target="YKM3p-_N13BnKFxUyMiM-120">
          <mxGeometry width="50" height="50" relative="1" as="geometry">
            <mxPoint x="754" y="170" as="sourcePoint" />
            <mxPoint x="760" y="240" as="targetPoint" />
          </mxGeometry>
        </mxCell>
        <mxCell id="YKM3p-_N13BnKFxUyMiM-120" value="" style="verticalLabelPosition=bottom;shadow=0;dashed=0;align=center;html=1;verticalAlign=top;shape=mxgraph.electrical.logic_gates.logic_gate;operation=xor;rotation=90;" vertex="1" parent="1">
          <mxGeometry x="738.75" y="220" width="41.25" height="20" as="geometry" />
        </mxCell>
        <mxCell id="YKM3p-_N13BnKFxUyMiM-121" value="y2C_5" style="endArrow=classic;html=1;rounded=0;entryX=0.75;entryY=0;entryDx=0;entryDy=0;exitX=1;exitY=0.5;exitDx=0;exitDy=0;exitPerimeter=0;" edge="1" parent="1" source="YKM3p-_N13BnKFxUyMiM-120">
          <mxGeometry width="50" height="50" relative="1" as="geometry">
            <mxPoint x="770" y="170" as="sourcePoint" />
            <mxPoint x="760" y="290" as="targetPoint" />
          </mxGeometry>
        </mxCell>
        <mxCell id="YKM3p-_N13BnKFxUyMiM-126" value="y_5" style="endArrow=classic;html=1;rounded=0;entryX=0;entryY=0.75;entryDx=0;entryDy=0;entryPerimeter=0;" edge="1" parent="1" target="YKM3p-_N13BnKFxUyMiM-127">
          <mxGeometry width="50" height="50" relative="1" as="geometry">
            <mxPoint x="874" y="170" as="sourcePoint" />
            <mxPoint x="880" y="240" as="targetPoint" />
          </mxGeometry>
        </mxCell>
        <mxCell id="YKM3p-_N13BnKFxUyMiM-127" value="" style="verticalLabelPosition=bottom;shadow=0;dashed=0;align=center;html=1;verticalAlign=top;shape=mxgraph.electrical.logic_gates.logic_gate;operation=xor;rotation=90;" vertex="1" parent="1">
          <mxGeometry x="858.75" y="220" width="41.25" height="20" as="geometry" />
        </mxCell>
        <mxCell id="YKM3p-_N13BnKFxUyMiM-128" value="y2C_5" style="endArrow=classic;html=1;rounded=0;entryX=0.75;entryY=0;entryDx=0;entryDy=0;exitX=1;exitY=0.5;exitDx=0;exitDy=0;exitPerimeter=0;" edge="1" parent="1" source="YKM3p-_N13BnKFxUyMiM-127">
          <mxGeometry width="50" height="50" relative="1" as="geometry">
            <mxPoint x="890" y="170" as="sourcePoint" />
            <mxPoint x="880" y="290" as="targetPoint" />
          </mxGeometry>
        </mxCell>
        <mxCell id="YKM3p-_N13BnKFxUyMiM-129" value="sel" style="endArrow=classic;html=1;rounded=0;edgeStyle=elbowEdgeStyle;elbow=vertical;entryX=0;entryY=0.25;entryDx=0;entryDy=0;entryPerimeter=0;" edge="1" parent="1" target="YKM3p-_N13BnKFxUyMiM-98">
          <mxGeometry width="50" height="50" relative="1" as="geometry">
            <mxPoint x="950" y="330" as="sourcePoint" />
            <mxPoint x="240" y="260" as="targetPoint" />
            <Array as="points">
              <mxPoint x="630" y="150" />
            </Array>
          </mxGeometry>
        </mxCell>
        <mxCell id="YKM3p-_N13BnKFxUyMiM-131" value="" style="endArrow=classic;html=1;rounded=0;entryX=0;entryY=0.25;entryDx=0;entryDy=0;entryPerimeter=0;" edge="1" parent="1" target="YKM3p-_N13BnKFxUyMiM-117">
          <mxGeometry width="50" height="50" relative="1" as="geometry">
            <mxPoint x="404" y="150" as="sourcePoint" />
            <mxPoint x="540" y="340" as="targetPoint" />
          </mxGeometry>
        </mxCell>
        <mxCell id="YKM3p-_N13BnKFxUyMiM-132" value="" style="endArrow=classic;html=1;rounded=0;entryX=0;entryY=0.25;entryDx=0;entryDy=0;entryPerimeter=0;" edge="1" parent="1" target="YKM3p-_N13BnKFxUyMiM-106">
          <mxGeometry width="50" height="50" relative="1" as="geometry">
            <mxPoint x="524" y="150" as="sourcePoint" />
            <mxPoint x="530" y="209" as="targetPoint" />
          </mxGeometry>
        </mxCell>
        <mxCell id="YKM3p-_N13BnKFxUyMiM-133" value="" style="endArrow=classic;html=1;rounded=0;entryX=0;entryY=0.25;entryDx=0;entryDy=0;entryPerimeter=0;" edge="1" parent="1" target="YKM3p-_N13BnKFxUyMiM-109">
          <mxGeometry width="50" height="50" relative="1" as="geometry">
            <mxPoint x="644" y="150" as="sourcePoint" />
            <mxPoint x="650" y="209" as="targetPoint" />
          </mxGeometry>
        </mxCell>
        <mxCell id="YKM3p-_N13BnKFxUyMiM-135" value="" style="endArrow=classic;html=1;rounded=0;entryX=0;entryY=0.25;entryDx=0;entryDy=0;entryPerimeter=0;" edge="1" parent="1" target="YKM3p-_N13BnKFxUyMiM-120">
          <mxGeometry width="50" height="50" relative="1" as="geometry">
            <mxPoint x="764" y="150" as="sourcePoint" />
            <mxPoint x="444" y="249" as="targetPoint" />
          </mxGeometry>
        </mxCell>
        <mxCell id="YKM3p-_N13BnKFxUyMiM-137" value="" style="endArrow=classic;html=1;rounded=0;entryX=0;entryY=0.25;entryDx=0;entryDy=0;entryPerimeter=0;" edge="1" parent="1" target="YKM3p-_N13BnKFxUyMiM-127">
          <mxGeometry width="50" height="50" relative="1" as="geometry">
            <mxPoint x="884" y="150" as="sourcePoint" />
            <mxPoint x="774" y="219" as="targetPoint" />
          </mxGeometry>
        </mxCell>
      </root>
    </mxGraphModel>
  </diagram>
</mxfile>
